<?xml version="1.0" encoding="iso-8859-1"?>
<!-- Uploaded to: SVG Repo, www.svgrepo.com, Generator: SVG Repo Mixer Tools -->
<svg fill="#000000" version="1.1" id="Capa_1" xmlns="http://www.w3.org/2000/svg" xmlns:xlink="http://www.w3.org/1999/xlink" 
	 viewBox="0 0 56 56" xml:space="preserve">
<g>
	<g>
	</g>
	<g>
		<path d="M52.98,21.911C52.994,21.772,53,21.636,53,21.5c0-2.79-2.294-5.046-5.1-4.999c-0.464-2.28-2.485-4.001-4.9-4.001
			c-0.618,0-1.223,0.113-1.79,0.331C40.308,11.403,38.728,10.5,37,10.5s-3.308,0.903-4.21,2.331
			c-0.256-0.098-0.521-0.168-0.79-0.223V8.5c0-2.757-2.243-5-5-5H8c-2.757,0-5,2.243-5,5v11.586l-1.293-1.293l-1.414,1.414l3,3
			C3.488,23.402,3.744,23.5,4,23.5c0.256,0,0.512-0.098,0.707-0.293l3-3l-1.414-1.414L5,20.086V8.5c0-1.654,1.346-3,3-3h19
			c1.654,0,3,1.346,3,3v4.109c-1.983,0.405-3.545,1.98-3.916,3.975c-1.745,0.325-3.174,1.559-3.776,3.191
			C21.414,18.976,20.248,18.5,19,18.5c-1.728,0-3.308,0.903-4.21,2.331C14.223,20.613,13.618,20.5,13,20.5
			c-2.415,0-4.436,1.721-4.9,4.001C5.319,24.447,3,26.71,3,29.5c0,0.136,0.006,0.272,0.02,0.411C1.224,30.689,0,32.488,0,34.5
			c0,2.415,1.721,4.435,4,4.899V42.5c0,0.552,0.448,1,1,1h2c2.415,0,4.435-1.721,4.899-4H16v8c0,2.757,2.243,5,5,5h17
			c2.757,0,5-2.243,5-5V36.914l1.293,1.293l1.414-1.414l-3-3c-0.391-0.391-1.023-0.391-1.414,0l-3,3l1.414,1.414L41,36.914V47.5
			c0,1.654-1.346,3-3,3H21c-1.654,0-3-1.346-3-3v-8h14c2.757,0,5-2.243,5-5c0-1.114-0.385-2.154-1.024-3h8.125
			c0.464,2.279,2.485,4,4.899,4h2c0.552,0,1-0.448,1-1v-3.101c2.279-0.464,4-2.485,4-4.899C56,24.488,54.776,22.689,52.98,21.911z
			 M24,29.5c-1.654,0-3-1.346-3-3c0-1.408,0.999-2.642,2.376-2.933c0.271-0.058,0.506-0.225,0.649-0.462
			c0.089-0.147,0.122-0.313,0.128-0.481C24.426,22.543,24.71,22.5,25,22.5c1.654,0,3,1.346,3,3c0,0.552,0.448,1,1,1
			c1.654,0,3,1.346,3,3H24z M32.624,31.567C34.001,31.858,35,33.092,35,34.5c0,1.654-1.346,3-3,3H11c-0.552,0-1,0.448-1,1
			c0,1.654-1.346,3-3,3H6v-3c0-0.552-0.448-1-1-1c-1.654,0-3-1.346-3-3c0-1.408,0.999-2.642,2.376-2.933
			c0.271-0.058,0.506-0.225,0.649-0.462s0.181-0.523,0.105-0.79C5.042,30.002,5,29.743,5,29.5c0-1.654,1.346-3,3-3
			c0.226,0,0.468,0.036,0.759,0.113c0.307,0.082,0.633,0.011,0.881-0.187c0.247-0.198,0.386-0.502,0.373-0.819
			C10.011,25.546,10.004,25.495,10,25.5c0-1.654,1.346-3,3-3c0.602,0,1.182,0.178,1.679,0.514c0.258,0.174,0.581,0.221,0.875,0.121
			c0.295-0.097,0.527-0.326,0.63-0.619C16.605,21.31,17.737,20.5,19,20.5c1.115,0,2.127,0.633,2.639,1.611
			C20.057,22.967,19,24.636,19,26.5c0,2.757,2.243,5,5,5h8.471C32.523,31.521,32.568,31.556,32.624,31.567z M51,29.5
			c-0.552,0-1,0.448-1,1v3h-1c-1.654,0-3-1.346-3-3c0-0.552-0.448-1-1-1H34c0-2.444-1.763-4.484-4.084-4.916
			C29.484,22.263,27.444,20.5,25,20.5c-0.284,0-0.564,0.03-0.84,0.077C24.552,19.376,25.67,18.5,27,18.5c0.552,0,1-0.448,1-1
			c0-1.654,1.346-3,3-3c0.602,0,1.182,0.178,1.679,0.514c0.257,0.174,0.581,0.22,0.875,0.121c0.295-0.097,0.527-0.326,0.63-0.619
			C34.605,13.31,35.737,12.5,37,12.5s2.395,0.81,2.817,2.016c0.103,0.293,0.335,0.522,0.63,0.619
			c0.294,0.099,0.618,0.053,0.875-0.121C41.818,14.678,42.398,14.5,43,14.5c1.654,0,3,1.346,3.002,2.938
			c-0.005,0.034-0.015,0.134-0.016,0.168c-0.013,0.317,0.126,0.621,0.373,0.819c0.248,0.198,0.573,0.268,0.881,0.187
			C47.532,18.536,47.774,18.5,48,18.5c1.654,0,3,1.346,3,3c0,0.243-0.042,0.502-0.131,0.815c-0.076,0.267-0.038,0.553,0.105,0.79
			s0.378,0.405,0.649,0.462C53.001,23.858,54,25.092,54,26.5C54,28.154,52.654,29.5,51,29.5z"/>
		<rect x="42" y="4.5" width="2" height="2"/>
		<rect x="46" y="4.5" width="2" height="2"/>
		<rect x="50" y="4.5" width="2" height="2"/>
		<rect x="4" y="50.5" width="2" height="2"/>
		<rect x="8" y="50.5" width="2" height="2"/>
		<rect x="12" y="50.5" width="2" height="2"/>
	</g>
</g>
</svg>